<?xml version="1.0" encoding="UTF-8"?>
<!DOCTYPE svg
  PUBLIC '-//W3C//DTD SVG 1.1//EN'
  'http://www.w3.org/Graphics/SVG/1.1/DTD/svg11.dtd'>
<svg height="17.000mm" version="1.1" width="30.000mm" xmlns="http://www.w3.org/2000/svg">
    <!--Autogenerated with python-barcode 0.9.0-->
    <g id="barcode_group">
        <rect height="100%" style="fill:white" width="100%"/>
        <rect height="15.000mm" style="fill:black;" width="0.200mm" x="1.000mm" y="1.000mm"/>
        <rect height="15.000mm" style="fill:white;" width="0.600mm" x="1.200mm" y="1.000mm"/>
        <rect height="15.000mm" style="fill:black;" width="0.200mm" x="1.800mm" y="1.000mm"/>
        <rect height="15.000mm" style="fill:white;" width="0.200mm" x="2.000mm" y="1.000mm"/>
        <rect height="15.000mm" style="fill:black;" width="0.600mm" x="2.200mm" y="1.000mm"/>
        <rect height="15.000mm" style="fill:white;" width="0.200mm" x="2.800mm" y="1.000mm"/>
        <rect height="15.000mm" style="fill:black;" width="0.600mm" x="3.000mm" y="1.000mm"/>
        <rect height="15.000mm" style="fill:white;" width="0.200mm" x="3.600mm" y="1.000mm"/>
        <rect height="15.000mm" style="fill:black;" width="0.200mm" x="3.800mm" y="1.000mm"/>
        <rect height="15.000mm" style="fill:white;" width="0.200mm" x="4.000mm" y="1.000mm"/>
        <rect height="15.000mm" style="fill:black;" width="0.200mm" x="4.200mm" y="1.000mm"/>
        <rect height="15.000mm" style="fill:white;" width="0.200mm" x="4.400mm" y="1.000mm"/>
        <rect height="15.000mm" style="fill:black;" width="0.600mm" x="4.600mm" y="1.000mm"/>
        <rect height="15.000mm" style="fill:white;" width="0.600mm" x="5.200mm" y="1.000mm"/>
        <rect height="15.000mm" style="fill:black;" width="0.200mm" x="5.800mm" y="1.000mm"/>
        <rect height="15.000mm" style="fill:white;" width="0.200mm" x="6.000mm" y="1.000mm"/>
        <rect height="15.000mm" style="fill:black;" width="0.200mm" x="6.200mm" y="1.000mm"/>
        <rect height="15.000mm" style="fill:white;" width="0.200mm" x="6.400mm" y="1.000mm"/>
        <rect height="15.000mm" style="fill:black;" width="0.600mm" x="6.600mm" y="1.000mm"/>
        <rect height="15.000mm" style="fill:white;" width="0.200mm" x="7.200mm" y="1.000mm"/>
        <rect height="15.000mm" style="fill:black;" width="0.200mm" x="7.400mm" y="1.000mm"/>
        <rect height="15.000mm" style="fill:white;" width="0.200mm" x="7.600mm" y="1.000mm"/>
        <rect height="15.000mm" style="fill:black;" width="0.200mm" x="7.800mm" y="1.000mm"/>
        <rect height="15.000mm" style="fill:white;" width="0.600mm" x="8.000mm" y="1.000mm"/>
        <rect height="15.000mm" style="fill:black;" width="0.600mm" x="8.600mm" y="1.000mm"/>
        <rect height="15.000mm" style="fill:white;" width="0.200mm" x="9.200mm" y="1.000mm"/>
        <rect height="15.000mm" style="fill:black;" width="0.600mm" x="9.400mm" y="1.000mm"/>
        <rect height="15.000mm" style="fill:white;" width="0.200mm" x="10.000mm" y="1.000mm"/>
        <rect height="15.000mm" style="fill:black;" width="0.200mm" x="10.200mm" y="1.000mm"/>
        <rect height="15.000mm" style="fill:white;" width="0.200mm" x="10.400mm" y="1.000mm"/>
        <rect height="15.000mm" style="fill:black;" width="0.600mm" x="10.600mm" y="1.000mm"/>
        <rect height="15.000mm" style="fill:white;" width="0.200mm" x="11.200mm" y="1.000mm"/>
        <rect height="15.000mm" style="fill:black;" width="0.200mm" x="11.400mm" y="1.000mm"/>
        <rect height="15.000mm" style="fill:white;" width="0.600mm" x="11.600mm" y="1.000mm"/>
        <rect height="15.000mm" style="fill:black;" width="0.200mm" x="12.200mm" y="1.000mm"/>
        <rect height="15.000mm" style="fill:white;" width="0.200mm" x="12.400mm" y="1.000mm"/>
        <rect height="15.000mm" style="fill:black;" width="0.200mm" x="12.600mm" y="1.000mm"/>
        <rect height="15.000mm" style="fill:white;" width="0.200mm" x="12.800mm" y="1.000mm"/>
        <rect height="15.000mm" style="fill:black;" width="0.600mm" x="13.000mm" y="1.000mm"/>
        <rect height="15.000mm" style="fill:white;" width="0.200mm" x="13.600mm" y="1.000mm"/>
        <rect height="15.000mm" style="fill:black;" width="0.200mm" x="13.800mm" y="1.000mm"/>
        <rect height="15.000mm" style="fill:white;" width="0.200mm" x="14.000mm" y="1.000mm"/>
        <rect height="15.000mm" style="fill:black;" width="0.200mm" x="14.200mm" y="1.000mm"/>
        <rect height="15.000mm" style="fill:white;" width="0.600mm" x="14.400mm" y="1.000mm"/>
        <rect height="15.000mm" style="fill:black;" width="0.600mm" x="15.000mm" y="1.000mm"/>
        <rect height="15.000mm" style="fill:white;" width="0.200mm" x="15.600mm" y="1.000mm"/>
        <rect height="15.000mm" style="fill:black;" width="0.600mm" x="15.800mm" y="1.000mm"/>
        <rect height="15.000mm" style="fill:white;" width="0.200mm" x="16.400mm" y="1.000mm"/>
        <rect height="15.000mm" style="fill:black;" width="0.200mm" x="16.600mm" y="1.000mm"/>
        <rect height="15.000mm" style="fill:white;" width="0.200mm" x="16.800mm" y="1.000mm"/>
        <rect height="15.000mm" style="fill:black;" width="0.600mm" x="17.000mm" y="1.000mm"/>
        <rect height="15.000mm" style="fill:white;" width="0.200mm" x="17.600mm" y="1.000mm"/>
        <rect height="15.000mm" style="fill:black;" width="0.200mm" x="17.800mm" y="1.000mm"/>
        <rect height="15.000mm" style="fill:white;" width="0.600mm" x="18.000mm" y="1.000mm"/>
        <rect height="15.000mm" style="fill:black;" width="0.200mm" x="18.600mm" y="1.000mm"/>
        <rect height="15.000mm" style="fill:white;" width="0.200mm" x="18.800mm" y="1.000mm"/>
        <rect height="15.000mm" style="fill:black;" width="0.200mm" x="19.000mm" y="1.000mm"/>
        <rect height="15.000mm" style="fill:white;" width="0.200mm" x="19.200mm" y="1.000mm"/>
        <rect height="15.000mm" style="fill:black;" width="0.600mm" x="19.400mm" y="1.000mm"/>
        <rect height="15.000mm" style="fill:white;" width="0.200mm" x="20.000mm" y="1.000mm"/>
        <rect height="15.000mm" style="fill:black;" width="0.200mm" x="20.200mm" y="1.000mm"/>
        <rect height="15.000mm" style="fill:white;" width="0.200mm" x="20.400mm" y="1.000mm"/>
        <rect height="15.000mm" style="fill:black;" width="0.200mm" x="20.600mm" y="1.000mm"/>
        <rect height="15.000mm" style="fill:white;" width="0.600mm" x="20.800mm" y="1.000mm"/>
        <rect height="15.000mm" style="fill:black;" width="0.200mm" x="21.400mm" y="1.000mm"/>
        <rect height="15.000mm" style="fill:white;" width="0.200mm" x="21.600mm" y="1.000mm"/>
        <rect height="15.000mm" style="fill:black;" width="0.600mm" x="21.800mm" y="1.000mm"/>
        <rect height="15.000mm" style="fill:white;" width="0.200mm" x="22.400mm" y="1.000mm"/>
        <rect height="15.000mm" style="fill:black;" width="0.600mm" x="22.600mm" y="1.000mm"/>
        <rect height="15.000mm" style="fill:white;" width="0.200mm" x="23.200mm" y="1.000mm"/>
        <rect height="15.000mm" style="fill:black;" width="0.600mm" x="23.400mm" y="1.000mm"/>
        <rect height="15.000mm" style="fill:white;" width="0.200mm" x="24.000mm" y="1.000mm"/>
        <rect height="15.000mm" style="fill:black;" width="0.200mm" x="24.200mm" y="1.000mm"/>
        <rect height="15.000mm" style="fill:white;" width="0.600mm" x="24.400mm" y="1.000mm"/>
        <rect height="15.000mm" style="fill:black;" width="0.200mm" x="25.000mm" y="1.000mm"/>
        <rect height="15.000mm" style="fill:white;" width="0.200mm" x="25.200mm" y="1.000mm"/>
        <rect height="15.000mm" style="fill:black;" width="0.200mm" x="25.400mm" y="1.000mm"/>
        <rect height="15.000mm" style="fill:white;" width="0.200mm" x="25.600mm" y="1.000mm"/>
        <rect height="15.000mm" style="fill:black;" width="0.600mm" x="25.800mm" y="1.000mm"/>
        <rect height="15.000mm" style="fill:white;" width="0.200mm" x="26.400mm" y="1.000mm"/>
        <rect height="15.000mm" style="fill:black;" width="0.200mm" x="26.600mm" y="1.000mm"/>
        <rect height="15.000mm" style="fill:white;" width="0.600mm" x="26.800mm" y="1.000mm"/>
        <rect height="15.000mm" style="fill:black;" width="0.200mm" x="27.400mm" y="1.000mm"/>
        <rect height="15.000mm" style="fill:white;" width="0.200mm" x="27.600mm" y="1.000mm"/>
        <rect height="15.000mm" style="fill:black;" width="0.600mm" x="27.800mm" y="1.000mm"/>
        <rect height="15.000mm" style="fill:white;" width="0.200mm" x="28.400mm" y="1.000mm"/>
        <rect height="15.000mm" style="fill:black;" width="0.600mm" x="28.600mm" y="1.000mm"/>
        <rect height="15.000mm" style="fill:white;" width="0.200mm" x="29.200mm" y="1.000mm"/>
        <rect height="15.000mm" style="fill:black;" width="0.200mm" x="29.400mm" y="1.000mm"/>
    </g>
</svg>
